<?xml version="1.0" encoding="UTF-8" standalone="no"?>
<svg
   xmlns:dc="http://purl.org/dc/elements/1.1/"
   xmlns:cc="http://creativecommons.org/ns#"
   xmlns:rdf="http://www.w3.org/1999/02/22-rdf-syntax-ns#"
   xmlns:svg="http://www.w3.org/2000/svg"
   xmlns="http://www.w3.org/2000/svg"
   xmlns:sodipodi="http://sodipodi.sourceforge.net/DTD/sodipodi-0.dtd"
   xmlns:inkscape="http://www.inkscape.org/namespaces/inkscape"
   id="Capa_1"
   enable-background="new 0 0 512.003 512.003"
   height="390.99802"
   viewBox="0 0 391.00031 391.00032"
   width="390.99802"
   version="1.1"
   sodipodi:docname="yourls-bot-icon.svg"
   inkscape:version="0.92.4 (5da689c313, 2019-01-14)"
   inkscape:export-filename="C:\Users\Hinrich\PycharmProjects\yourls-bot\logo\yourls-bot-icon.png"
   inkscape:export-xdpi="122.76"
   inkscape:export-ydpi="122.76">
  <metadata
     id="metadata61">
    <rdf:RDF>
      <cc:Work
         rdf:about="">
        <dc:format>image/svg+xml</dc:format>
        <dc:type
           rdf:resource="http://purl.org/dc/dcmitype/StillImage" />
        <dc:title></dc:title>
      </cc:Work>
    </rdf:RDF>
  </metadata>
  <defs
     id="defs59">
    <path
       d="M 675,360 H 63 V 624 H 675 V 920 L 1135,492 675,64 Z"
       id="a"
       inkscape:connector-curvature="0" />
    <path
       id="c"
       d="m 2736,0 h 318 c 218.705,0 396,177.295 396,396 0,218.705 -177.295,396 -396,396 H 2736 C 2517.295,792 2340,614.705 2340,396 2340,177.295 2517.295,0 2736,0 Z m 0,254 c -78.424,0 -142,63.576 -142,142 0,78.424 63.576,142 142,142 h 318 c 78.424,0 142,-63.576 142,-142 0,-78.424 -63.576,-142 -142,-142 z"
       inkscape:connector-curvature="0" />
    <filter
       id="b"
       filterUnits="objectBoundingBox"
       height="1.131"
       width="1.094"
       y="-0.066"
       x="-0.046999998">
      <feMorphology
         id="feMorphology873"
         result="shadowSpreadInner1"
         in="SourceAlpha"
         radius="54" />
      <feOffset
         id="feOffset875"
         result="shadowOffsetInner1"
         in="shadowSpreadInner1"
         dy="-50" />
      <feComposite
         id="feComposite877"
         result="shadowInnerInner1"
         k3="1"
         k2="-1"
         operator="arithmetic"
         in2="SourceAlpha"
         in="shadowOffsetInner1"
         k1="0"
         k4="0" />
      <feColorMatrix
         id="feColorMatrix879"
         in="shadowInnerInner1"
         values="0 0 0 0 0.262745098 0 0 0 0 0.576470588 0 0 0 0 0.733333333 0 0 0 1 0" />
    </filter>
    <path
       id="e"
       d="m 3906,0 h 318 c 218.705,0 396,177.295 396,396 0,218.705 -177.295,396 -396,396 H 3906 C 3687.295,792 3510,614.705 3510,396 3510,177.295 3687.295,0 3906,0 Z m 0,254 c -78.424,0 -142,63.576 -142,142 0,78.424 63.576,142 142,142 h 318 c 78.424,0 142,-63.576 142,-142 0,-78.424 -63.576,-142 -142,-142 z"
       inkscape:connector-curvature="0" />
    <filter
       id="d"
       filterUnits="objectBoundingBox"
       height="1.131"
       width="1.094"
       y="-0.066"
       x="-0.046999998">
      <feMorphology
         id="feMorphology883"
         result="shadowSpreadInner1"
         in="SourceAlpha"
         radius="54" />
      <feOffset
         id="feOffset885"
         result="shadowOffsetInner1"
         in="shadowSpreadInner1"
         dy="-50" />
      <feComposite
         id="feComposite887"
         result="shadowInnerInner1"
         k3="1"
         k2="-1"
         operator="arithmetic"
         in2="SourceAlpha"
         in="shadowOffsetInner1"
         k1="0"
         k4="0" />
      <feColorMatrix
         id="feColorMatrix889"
         in="shadowInnerInner1"
         values="0 0 0 0 0.262745098 0 0 0 0 0.576470588 0 0 0 0 0.733333333 0 0 0 1 0" />
    </filter>
    <path
       id="g"
       d="m 1566,0 h 318 c 218.705,0 396,177.295 396,396 0,218.705 -177.295,396 -396,396 H 1566 C 1347.295,792 1170,614.705 1170,396 1170,177.295 1347.295,0 1566,0 Z m 0,254 c -78.424,0 -142,63.576 -142,142 0,78.424 63.576,142 142,142 h 318 c 78.424,0 142,-63.576 142,-142 0,-78.424 -63.576,-142 -142,-142 z"
       inkscape:connector-curvature="0" />
    <filter
       id="f"
       filterUnits="objectBoundingBox"
       height="1.131"
       width="1.094"
       y="-0.066"
       x="-0.046999998">
      <feMorphology
         id="feMorphology893"
         result="shadowSpreadInner1"
         in="SourceAlpha"
         radius="54" />
      <feOffset
         id="feOffset895"
         result="shadowOffsetInner1"
         in="shadowSpreadInner1"
         dy="-50" />
      <feComposite
         id="feComposite897"
         result="shadowInnerInner1"
         k3="1"
         k2="-1"
         operator="arithmetic"
         in2="SourceAlpha"
         in="shadowOffsetInner1"
         k1="0"
         k4="0" />
      <feColorMatrix
         id="feColorMatrix899"
         in="shadowInnerInner1"
         values="0 0 0 0 0.262745098 0 0 0 0 0.576470588 0 0 0 0 0.733333333 0 0 0 1 0" />
    </filter>
    <path
       id="h"
       d="m 396,0 h 318 c 218.705,0 396,177.295 396,396 0,218.705 -177.295,396 -396,396 H 396 C 177.295,792 0,614.705 0,396 0,177.295 177.295,0 396,0 Z m 0,254 c -78.424,0 -142,63.576 -142,142 0,78.424 63.576,142 142,142 h 318 c 78.424,0 142,-63.576 142,-142 0,-78.424 -63.576,-142 -142,-142 z"
       inkscape:connector-curvature="0" />
    <filter
       id="i"
       filterUnits="objectBoundingBox"
       height="1.131"
       width="1.094"
       y="-0.066"
       x="-0.046999998">
      <feMorphology
         id="feMorphology903"
         result="shadowSpreadInner1"
         in="SourceAlpha"
         radius="54" />
      <feOffset
         id="feOffset905"
         result="shadowOffsetInner1"
         in="shadowSpreadInner1"
         dy="-50" />
      <feComposite
         id="feComposite907"
         result="shadowInnerInner1"
         k3="1"
         k2="-1"
         operator="arithmetic"
         in2="SourceAlpha"
         in="shadowOffsetInner1"
         k1="0"
         k4="0" />
      <feColorMatrix
         id="feColorMatrix909"
         in="shadowInnerInner1"
         values="0 0 0 0 0.262745098 0 0 0 0 0.576470588 0 0 0 0 0.733333333 0 0 0 1 0" />
    </filter>
    <path
       id="k"
       d="m 396,0 h 318 c 218.705,0 396,177.295 396,396 0,218.705 -177.295,396 -396,396 H 396 C 177.295,792 0,614.705 0,396 0,177.295 177.295,0 396,0 Z m 0,254 c -78.424,0 -142,63.576 -142,142 0,78.424 63.576,142 142,142 h 318 c 78.424,0 142,-63.576 142,-142 0,-78.424 -63.576,-142 -142,-142 z"
       inkscape:connector-curvature="0" />
    <filter
       id="j"
       filterUnits="objectBoundingBox"
       height="1.131"
       width="1.094"
       y="-0.066"
       x="-0.046999998">
      <feMorphology
         id="feMorphology913"
         result="shadowSpreadInner1"
         in="SourceAlpha"
         radius="54" />
      <feOffset
         id="feOffset915"
         result="shadowOffsetInner1"
         in="shadowSpreadInner1"
         dy="-50" />
      <feComposite
         id="feComposite917"
         result="shadowInnerInner1"
         k3="1"
         k2="-1"
         operator="arithmetic"
         in2="SourceAlpha"
         in="shadowOffsetInner1"
         k1="0"
         k4="0" />
      <feColorMatrix
         id="feColorMatrix919"
         in="shadowInnerInner1"
         values="0 0 0 0 0.262745098 0 0 0 0 0.576470588 0 0 0 0 0.733333333 0 0 0 1 0" />
    </filter>
    <path
       id="l"
       d="m 781,487 h 724 c 50.258,0 91,-40.742 91,-91 0,-50.258 -40.742,-91 -91,-91 H 781 c -50.258,0 -91,40.742 -91,91 0,50.258 40.742,91 91,91 z"
       inkscape:connector-curvature="0" />
    <path
       id="n"
       d="m 781,487 h 724 c 50.258,0 91,-40.742 91,-91 0,-50.258 -40.742,-91 -91,-91 H 781 c -50.258,0 -91,40.742 -91,91 0,50.258 40.742,91 91,91 z"
       inkscape:connector-curvature="0" />
    <filter
       id="m"
       filterUnits="objectBoundingBox"
       height="1.418"
       width="1.084"
       y="-0.20899999"
       x="-0.041999999">
      <feMorphology
         id="feMorphology924"
         result="shadowSpreadInner1"
         in="SourceAlpha"
         radius="25" />
      <feOffset
         id="feOffset926"
         result="shadowOffsetInner1"
         in="shadowSpreadInner1"
         dy="-51" />
      <feComposite
         id="feComposite928"
         result="shadowInnerInner1"
         k3="1"
         k2="-1"
         operator="arithmetic"
         in2="SourceAlpha"
         in="shadowOffsetInner1"
         k1="0"
         k4="0" />
      <feColorMatrix
         id="feColorMatrix930"
         in="shadowInnerInner1"
         values="0 0 0 0 0.262745098 0 0 0 0 0.576470588 0 0 0 0 0.733333333 0 0 0 1 0" />
    </filter>
    <path
       id="o"
       d="m 1948,487 h 724 c 50.258,0 91,-40.742 91,-91 0,-50.258 -40.742,-91 -91,-91 h -724 c -50.258,0 -91,40.742 -91,91 0,50.258 40.742,91 91,91 z"
       inkscape:connector-curvature="0" />
    <path
       id="q"
       d="m 1948,487 h 724 c 50.258,0 91,-40.742 91,-91 0,-50.258 -40.742,-91 -91,-91 h -724 c -50.258,0 -91,40.742 -91,91 0,50.258 40.742,91 91,91 z"
       inkscape:connector-curvature="0" />
    <filter
       id="p"
       filterUnits="objectBoundingBox"
       height="1.418"
       width="1.084"
       y="-0.20899999"
       x="-0.041999999">
      <feMorphology
         id="feMorphology935"
         result="shadowSpreadInner1"
         in="SourceAlpha"
         radius="25" />
      <feOffset
         id="feOffset937"
         result="shadowOffsetInner1"
         in="shadowSpreadInner1"
         dy="-51" />
      <feComposite
         id="feComposite939"
         result="shadowInnerInner1"
         k3="1"
         k2="-1"
         operator="arithmetic"
         in2="SourceAlpha"
         in="shadowOffsetInner1"
         k1="0"
         k4="0" />
      <feColorMatrix
         id="feColorMatrix941"
         in="shadowInnerInner1"
         values="0 0 0 0 0.262745098 0 0 0 0 0.576470588 0 0 0 0 0.733333333 0 0 0 1 0" />
    </filter>
    <path
       id="r"
       d="m 3115,487 h 724 c 50.258,0 91,-40.742 91,-91 0,-50.258 -40.742,-91 -91,-91 h -724 c -50.258,0 -91,40.742 -91,91 0,50.258 40.742,91 91,91 z"
       inkscape:connector-curvature="0" />
    <path
       id="t"
       d="m 3115,487 h 724 c 50.258,0 91,-40.742 91,-91 0,-50.258 -40.742,-91 -91,-91 h -724 c -50.258,0 -91,40.742 -91,91 0,50.258 40.742,91 91,91 z"
       inkscape:connector-curvature="0" />
    <filter
       id="s"
       filterUnits="objectBoundingBox"
       height="1.418"
       width="1.084"
       y="-0.20899999"
       x="-0.041999999">
      <feMorphology
         id="feMorphology946"
         result="shadowSpreadInner1"
         in="SourceAlpha"
         radius="25" />
      <feOffset
         id="feOffset948"
         result="shadowOffsetInner1"
         in="shadowSpreadInner1"
         dy="-51" />
      <feComposite
         id="feComposite950"
         result="shadowInnerInner1"
         k3="1"
         k2="-1"
         operator="arithmetic"
         in2="SourceAlpha"
         in="shadowOffsetInner1"
         k1="0"
         k4="0" />
      <feColorMatrix
         id="feColorMatrix952"
         in="shadowInnerInner1"
         values="0 0 0 0 0.262745098 0 0 0 0 0.576470588 0 0 0 0 0.733333333 0 0 0 1 0" />
    </filter>
    <path
       id="v"
       d="m 939.6,0 h 190.8 c 131.223,0 237.6,106.556 237.6,238 0,131.444 -106.377,238 -237.6,238 H 939.6 C 808.377,476 702,369.444 702,238 702,106.556 808.377,0 939.6,0 Z m 0,152.657 c -47.055,0 -85.2,38.21 -85.2,85.343 0,47.134 38.145,85.343 85.2,85.343 h 190.8 c 47.055,0 85.2,-38.21 85.2,-85.343 0,-47.134 -38.145,-85.343 -85.2,-85.343 z"
       inkscape:connector-curvature="0" />
    <filter
       id="u"
       filterUnits="objectBoundingBox"
       height="1.13"
       width="1.0930001"
       y="-0.064999998"
       x="-0.046999998">
      <feMorphology
         id="feMorphology956"
         result="shadowSpreadInner1"
         in="SourceAlpha"
         radius="32" />
      <feOffset
         id="feOffset958"
         result="shadowOffsetInner1"
         in="shadowSpreadInner1"
         dy="-30" />
      <feComposite
         id="feComposite960"
         result="shadowInnerInner1"
         k3="1"
         k2="-1"
         operator="arithmetic"
         in2="SourceAlpha"
         in="shadowOffsetInner1"
         k1="0"
         k4="0" />
      <feColorMatrix
         id="feColorMatrix962"
         in="shadowInnerInner1"
         values="0 0 0 0 0.262745098 0 0 0 0 0.576470588 0 0 0 0 0.733333333 0 0 0 1 0" />
    </filter>
    <path
       id="w"
       d="M 237.6,0 H 428.4 C 559.623,0 666,106.556 666,238 666,369.444 559.623,476 428.4,476 H 237.6 C 106.377,476 0,369.444 0,238 0,106.556 106.377,0 237.6,0 Z m 0,152.657 c -47.055,0 -85.2,38.21 -85.2,85.343 0,47.134 38.145,85.343 85.2,85.343 h 190.8 c 47.055,0 85.2,-38.21 85.2,-85.343 0,-47.134 -38.145,-85.343 -85.2,-85.343 z"
       inkscape:connector-curvature="0" />
    <filter
       id="x"
       filterUnits="objectBoundingBox"
       height="1.13"
       width="1.0930001"
       y="-0.064999998"
       x="-0.046999998">
      <feMorphology
         id="feMorphology966"
         result="shadowSpreadInner1"
         in="SourceAlpha"
         radius="32" />
      <feOffset
         id="feOffset968"
         result="shadowOffsetInner1"
         in="shadowSpreadInner1"
         dy="-30" />
      <feComposite
         id="feComposite970"
         result="shadowInnerInner1"
         k3="1"
         k2="-1"
         operator="arithmetic"
         in2="SourceAlpha"
         in="shadowOffsetInner1"
         k1="0"
         k4="0" />
      <feColorMatrix
         id="feColorMatrix972"
         in="shadowInnerInner1"
         values="0 0 0 0 0.262745098 0 0 0 0 0.576470588 0 0 0 0 0.733333333 0 0 0 1 0" />
    </filter>
    <path
       id="z"
       d="M 237.6,0 H 428.4 C 559.623,0 666,106.556 666,238 666,369.444 559.623,476 428.4,476 H 237.6 C 106.377,476 0,369.444 0,238 0,106.556 106.377,0 237.6,0 Z m 0,152.657 c -47.055,0 -85.2,38.21 -85.2,85.343 0,47.134 38.145,85.343 85.2,85.343 h 190.8 c 47.055,0 85.2,-38.21 85.2,-85.343 0,-47.134 -38.145,-85.343 -85.2,-85.343 z"
       inkscape:connector-curvature="0" />
    <filter
       id="y"
       filterUnits="objectBoundingBox"
       height="1.13"
       width="1.0930001"
       y="-0.064999998"
       x="-0.046999998">
      <feMorphology
         id="feMorphology976"
         result="shadowSpreadInner1"
         in="SourceAlpha"
         radius="32" />
      <feOffset
         id="feOffset978"
         result="shadowOffsetInner1"
         in="shadowSpreadInner1"
         dy="-30" />
      <feComposite
         id="feComposite980"
         result="shadowInnerInner1"
         k3="1"
         k2="-1"
         operator="arithmetic"
         in2="SourceAlpha"
         in="shadowOffsetInner1"
         k1="0"
         k4="0" />
      <feColorMatrix
         id="feColorMatrix982"
         in="shadowInnerInner1"
         values="0 0 0 0 0.262745098 0 0 0 0 0.576470588 0 0 0 0 0.733333333 0 0 0 1 0" />
    </filter>
    <path
       id="A"
       d="M 468.6,292.692 H 903 c 30.155,0 54.6,-24.486 54.6,-54.692 0,-30.206 -24.445,-54.692 -54.6,-54.692 H 468.6 c -30.155,0 -54.6,24.486 -54.6,54.692 0,30.206 24.445,54.692 54.6,54.692 z"
       inkscape:connector-curvature="0" />
    <path
       id="C"
       d="M 468.6,292.692 H 903 c 30.155,0 54.6,-24.486 54.6,-54.692 0,-30.206 -24.445,-54.692 -54.6,-54.692 H 468.6 c -30.155,0 -54.6,24.486 -54.6,54.692 0,30.206 24.445,54.692 54.6,54.692 z"
       inkscape:connector-curvature="0" />
    <filter
       id="B"
       filterUnits="objectBoundingBox"
       height="1.421"
       width="1.085"
       y="-0.20999999"
       x="-0.041999999">
      <feMorphology
         id="feMorphology987"
         result="shadowSpreadInner1"
         in="SourceAlpha"
         radius="15" />
      <feOffset
         id="feOffset989"
         result="shadowOffsetInner1"
         in="shadowSpreadInner1"
         dy="-31" />
      <feComposite
         id="feComposite991"
         result="shadowInnerInner1"
         k3="1"
         k2="-1"
         operator="arithmetic"
         in2="SourceAlpha"
         in="shadowOffsetInner1"
         k1="0"
         k4="0" />
      <feColorMatrix
         id="feColorMatrix993"
         in="shadowInnerInner1"
         values="0 0 0 0 0.262745098 0 0 0 0 0.576470588 0 0 0 0 0.733333333 0 0 0 1 0" />
    </filter>
    <path
       d="M 675,360 H 63 V 624 H 675 V 920 L 1135,492 675,64 Z"
       id="a-0"
       inkscape:connector-curvature="0" />
    <path
       id="c-7"
       d="m 2736,0 h 318 c 218.705,0 396,177.295 396,396 0,218.705 -177.295,396 -396,396 H 2736 C 2517.295,792 2340,614.705 2340,396 2340,177.295 2517.295,0 2736,0 Z m 0,254 c -78.424,0 -142,63.576 -142,142 0,78.424 63.576,142 142,142 h 318 c 78.424,0 142,-63.576 142,-142 0,-78.424 -63.576,-142 -142,-142 z"
       inkscape:connector-curvature="0" />
    <filter
       id="b-6"
       filterUnits="objectBoundingBox"
       height="1.131"
       width="1.094"
       y="-0.066"
       x="-0.046999998">
      <feMorphology
         id="feMorphology1350"
         result="shadowSpreadInner1"
         in="SourceAlpha"
         radius="54" />
      <feOffset
         id="feOffset1352"
         result="shadowOffsetInner1"
         in="shadowSpreadInner1"
         dy="-50" />
      <feComposite
         id="feComposite1354"
         result="shadowInnerInner1"
         k3="1"
         k2="-1"
         operator="arithmetic"
         in2="SourceAlpha"
         in="shadowOffsetInner1"
         k1="0"
         k4="0" />
      <feColorMatrix
         id="feColorMatrix1356"
         in="shadowInnerInner1"
         values="0 0 0 0 0.262745098 0 0 0 0 0.576470588 0 0 0 0 0.733333333 0 0 0 1 0" />
    </filter>
    <path
       id="e-4"
       d="m 3906,0 h 318 c 218.705,0 396,177.295 396,396 0,218.705 -177.295,396 -396,396 H 3906 C 3687.295,792 3510,614.705 3510,396 3510,177.295 3687.295,0 3906,0 Z m 0,254 c -78.424,0 -142,63.576 -142,142 0,78.424 63.576,142 142,142 h 318 c 78.424,0 142,-63.576 142,-142 0,-78.424 -63.576,-142 -142,-142 z"
       inkscape:connector-curvature="0" />
    <filter
       id="d-1"
       filterUnits="objectBoundingBox"
       height="1.131"
       width="1.094"
       y="-0.066"
       x="-0.046999998">
      <feMorphology
         id="feMorphology1360"
         result="shadowSpreadInner1"
         in="SourceAlpha"
         radius="54" />
      <feOffset
         id="feOffset1362"
         result="shadowOffsetInner1"
         in="shadowSpreadInner1"
         dy="-50" />
      <feComposite
         id="feComposite1364"
         result="shadowInnerInner1"
         k3="1"
         k2="-1"
         operator="arithmetic"
         in2="SourceAlpha"
         in="shadowOffsetInner1"
         k1="0"
         k4="0" />
      <feColorMatrix
         id="feColorMatrix1366"
         in="shadowInnerInner1"
         values="0 0 0 0 0.262745098 0 0 0 0 0.576470588 0 0 0 0 0.733333333 0 0 0 1 0" />
    </filter>
    <path
       id="g-3"
       d="m 1566,0 h 318 c 218.705,0 396,177.295 396,396 0,218.705 -177.295,396 -396,396 H 1566 C 1347.295,792 1170,614.705 1170,396 1170,177.295 1347.295,0 1566,0 Z m 0,254 c -78.424,0 -142,63.576 -142,142 0,78.424 63.576,142 142,142 h 318 c 78.424,0 142,-63.576 142,-142 0,-78.424 -63.576,-142 -142,-142 z"
       inkscape:connector-curvature="0" />
    <filter
       id="f-8"
       filterUnits="objectBoundingBox"
       height="1.131"
       width="1.094"
       y="-0.066"
       x="-0.046999998">
      <feMorphology
         id="feMorphology1370"
         result="shadowSpreadInner1"
         in="SourceAlpha"
         radius="54" />
      <feOffset
         id="feOffset1372"
         result="shadowOffsetInner1"
         in="shadowSpreadInner1"
         dy="-50" />
      <feComposite
         id="feComposite1374"
         result="shadowInnerInner1"
         k3="1"
         k2="-1"
         operator="arithmetic"
         in2="SourceAlpha"
         in="shadowOffsetInner1"
         k1="0"
         k4="0" />
      <feColorMatrix
         id="feColorMatrix1376"
         in="shadowInnerInner1"
         values="0 0 0 0 0.262745098 0 0 0 0 0.576470588 0 0 0 0 0.733333333 0 0 0 1 0" />
    </filter>
    <path
       id="h-5"
       d="m 396,0 h 318 c 218.705,0 396,177.295 396,396 0,218.705 -177.295,396 -396,396 H 396 C 177.295,792 0,614.705 0,396 0,177.295 177.295,0 396,0 Z m 0,254 c -78.424,0 -142,63.576 -142,142 0,78.424 63.576,142 142,142 h 318 c 78.424,0 142,-63.576 142,-142 0,-78.424 -63.576,-142 -142,-142 z"
       inkscape:connector-curvature="0" />
    <filter
       id="i-7"
       filterUnits="objectBoundingBox"
       height="1.131"
       width="1.094"
       y="-0.066"
       x="-0.046999998">
      <feMorphology
         id="feMorphology1380"
         result="shadowSpreadInner1"
         in="SourceAlpha"
         radius="54" />
      <feOffset
         id="feOffset1382"
         result="shadowOffsetInner1"
         in="shadowSpreadInner1"
         dy="-50" />
      <feComposite
         id="feComposite1384"
         result="shadowInnerInner1"
         k3="1"
         k2="-1"
         operator="arithmetic"
         in2="SourceAlpha"
         in="shadowOffsetInner1"
         k1="0"
         k4="0" />
      <feColorMatrix
         id="feColorMatrix1386"
         in="shadowInnerInner1"
         values="0 0 0 0 0.262745098 0 0 0 0 0.576470588 0 0 0 0 0.733333333 0 0 0 1 0" />
    </filter>
    <path
       id="k-4"
       d="m 396,0 h 318 c 218.705,0 396,177.295 396,396 0,218.705 -177.295,396 -396,396 H 396 C 177.295,792 0,614.705 0,396 0,177.295 177.295,0 396,0 Z m 0,254 c -78.424,0 -142,63.576 -142,142 0,78.424 63.576,142 142,142 h 318 c 78.424,0 142,-63.576 142,-142 0,-78.424 -63.576,-142 -142,-142 z"
       inkscape:connector-curvature="0" />
    <filter
       id="j-7"
       filterUnits="objectBoundingBox"
       height="1.131"
       width="1.094"
       y="-0.066"
       x="-0.046999998">
      <feMorphology
         id="feMorphology1390"
         result="shadowSpreadInner1"
         in="SourceAlpha"
         radius="54" />
      <feOffset
         id="feOffset1392"
         result="shadowOffsetInner1"
         in="shadowSpreadInner1"
         dy="-50" />
      <feComposite
         id="feComposite1394"
         result="shadowInnerInner1"
         k3="1"
         k2="-1"
         operator="arithmetic"
         in2="SourceAlpha"
         in="shadowOffsetInner1"
         k1="0"
         k4="0" />
      <feColorMatrix
         id="feColorMatrix1396"
         in="shadowInnerInner1"
         values="0 0 0 0 0.262745098 0 0 0 0 0.576470588 0 0 0 0 0.733333333 0 0 0 1 0" />
    </filter>
    <path
       id="l-5"
       d="m 781,487 h 724 c 50.258,0 91,-40.742 91,-91 0,-50.258 -40.742,-91 -91,-91 H 781 c -50.258,0 -91,40.742 -91,91 0,50.258 40.742,91 91,91 z"
       inkscape:connector-curvature="0" />
    <path
       id="n-2"
       d="m 781,487 h 724 c 50.258,0 91,-40.742 91,-91 0,-50.258 -40.742,-91 -91,-91 H 781 c -50.258,0 -91,40.742 -91,91 0,50.258 40.742,91 91,91 z"
       inkscape:connector-curvature="0" />
    <filter
       id="m-4"
       filterUnits="objectBoundingBox"
       height="1.418"
       width="1.084"
       y="-0.20899999"
       x="-0.041999999">
      <feMorphology
         id="feMorphology1401"
         result="shadowSpreadInner1"
         in="SourceAlpha"
         radius="25" />
      <feOffset
         id="feOffset1403"
         result="shadowOffsetInner1"
         in="shadowSpreadInner1"
         dy="-51" />
      <feComposite
         id="feComposite1405"
         result="shadowInnerInner1"
         k3="1"
         k2="-1"
         operator="arithmetic"
         in2="SourceAlpha"
         in="shadowOffsetInner1"
         k1="0"
         k4="0" />
      <feColorMatrix
         id="feColorMatrix1407"
         in="shadowInnerInner1"
         values="0 0 0 0 0.262745098 0 0 0 0 0.576470588 0 0 0 0 0.733333333 0 0 0 1 0" />
    </filter>
    <path
       id="o-6"
       d="m 1948,487 h 724 c 50.258,0 91,-40.742 91,-91 0,-50.258 -40.742,-91 -91,-91 h -724 c -50.258,0 -91,40.742 -91,91 0,50.258 40.742,91 91,91 z"
       inkscape:connector-curvature="0" />
    <path
       id="q-9"
       d="m 1948,487 h 724 c 50.258,0 91,-40.742 91,-91 0,-50.258 -40.742,-91 -91,-91 h -724 c -50.258,0 -91,40.742 -91,91 0,50.258 40.742,91 91,91 z"
       inkscape:connector-curvature="0" />
    <filter
       id="p-7"
       filterUnits="objectBoundingBox"
       height="1.418"
       width="1.084"
       y="-0.20899999"
       x="-0.041999999">
      <feMorphology
         id="feMorphology1412"
         result="shadowSpreadInner1"
         in="SourceAlpha"
         radius="25" />
      <feOffset
         id="feOffset1414"
         result="shadowOffsetInner1"
         in="shadowSpreadInner1"
         dy="-51" />
      <feComposite
         id="feComposite1416"
         result="shadowInnerInner1"
         k3="1"
         k2="-1"
         operator="arithmetic"
         in2="SourceAlpha"
         in="shadowOffsetInner1"
         k1="0"
         k4="0" />
      <feColorMatrix
         id="feColorMatrix1418"
         in="shadowInnerInner1"
         values="0 0 0 0 0.262745098 0 0 0 0 0.576470588 0 0 0 0 0.733333333 0 0 0 1 0" />
    </filter>
    <path
       id="r-8"
       d="m 3115,487 h 724 c 50.258,0 91,-40.742 91,-91 0,-50.258 -40.742,-91 -91,-91 h -724 c -50.258,0 -91,40.742 -91,91 0,50.258 40.742,91 91,91 z"
       inkscape:connector-curvature="0" />
    <path
       id="t-6"
       d="m 3115,487 h 724 c 50.258,0 91,-40.742 91,-91 0,-50.258 -40.742,-91 -91,-91 h -724 c -50.258,0 -91,40.742 -91,91 0,50.258 40.742,91 91,91 z"
       inkscape:connector-curvature="0" />
    <filter
       id="s-1"
       filterUnits="objectBoundingBox"
       height="1.418"
       width="1.084"
       y="-0.20899999"
       x="-0.041999999">
      <feMorphology
         id="feMorphology1423"
         result="shadowSpreadInner1"
         in="SourceAlpha"
         radius="25" />
      <feOffset
         id="feOffset1425"
         result="shadowOffsetInner1"
         in="shadowSpreadInner1"
         dy="-51" />
      <feComposite
         id="feComposite1427"
         result="shadowInnerInner1"
         k3="1"
         k2="-1"
         operator="arithmetic"
         in2="SourceAlpha"
         in="shadowOffsetInner1"
         k1="0"
         k4="0" />
      <feColorMatrix
         id="feColorMatrix1429"
         in="shadowInnerInner1"
         values="0 0 0 0 0.262745098 0 0 0 0 0.576470588 0 0 0 0 0.733333333 0 0 0 1 0" />
    </filter>
    <path
       id="v-7"
       d="m 939.6,0 h 190.8 c 131.223,0 237.6,106.556 237.6,238 0,131.444 -106.377,238 -237.6,238 H 939.6 C 808.377,476 702,369.444 702,238 702,106.556 808.377,0 939.6,0 Z m 0,152.657 c -47.055,0 -85.2,38.21 -85.2,85.343 0,47.134 38.145,85.343 85.2,85.343 h 190.8 c 47.055,0 85.2,-38.21 85.2,-85.343 0,-47.134 -38.145,-85.343 -85.2,-85.343 z"
       inkscape:connector-curvature="0" />
    <filter
       id="u-6"
       filterUnits="objectBoundingBox"
       height="1.13"
       width="1.0930001"
       y="-0.064999998"
       x="-0.046999998">
      <feMorphology
         id="feMorphology1433"
         result="shadowSpreadInner1"
         in="SourceAlpha"
         radius="32" />
      <feOffset
         id="feOffset1435"
         result="shadowOffsetInner1"
         in="shadowSpreadInner1"
         dy="-30" />
      <feComposite
         id="feComposite1437"
         result="shadowInnerInner1"
         k3="1"
         k2="-1"
         operator="arithmetic"
         in2="SourceAlpha"
         in="shadowOffsetInner1"
         k1="0"
         k4="0" />
      <feColorMatrix
         id="feColorMatrix1439"
         in="shadowInnerInner1"
         values="0 0 0 0 0.262745098 0 0 0 0 0.576470588 0 0 0 0 0.733333333 0 0 0 1 0" />
    </filter>
    <path
       id="w-8"
       d="M 237.6,0 H 428.4 C 559.623,0 666,106.556 666,238 666,369.444 559.623,476 428.4,476 H 237.6 C 106.377,476 0,369.444 0,238 0,106.556 106.377,0 237.6,0 Z m 0,152.657 c -47.055,0 -85.2,38.21 -85.2,85.343 0,47.134 38.145,85.343 85.2,85.343 h 190.8 c 47.055,0 85.2,-38.21 85.2,-85.343 0,-47.134 -38.145,-85.343 -85.2,-85.343 z"
       inkscape:connector-curvature="0" />
    <filter
       id="x-5"
       filterUnits="objectBoundingBox"
       height="1.13"
       width="1.0930001"
       y="-0.064999998"
       x="-0.046999998">
      <feMorphology
         id="feMorphology1443"
         result="shadowSpreadInner1"
         in="SourceAlpha"
         radius="32" />
      <feOffset
         id="feOffset1445"
         result="shadowOffsetInner1"
         in="shadowSpreadInner1"
         dy="-30" />
      <feComposite
         id="feComposite1447"
         result="shadowInnerInner1"
         k3="1"
         k2="-1"
         operator="arithmetic"
         in2="SourceAlpha"
         in="shadowOffsetInner1"
         k1="0"
         k4="0" />
      <feColorMatrix
         id="feColorMatrix1449"
         in="shadowInnerInner1"
         values="0 0 0 0 0.262745098 0 0 0 0 0.576470588 0 0 0 0 0.733333333 0 0 0 1 0" />
    </filter>
    <path
       id="z-7"
       d="M 237.6,0 H 428.4 C 559.623,0 666,106.556 666,238 666,369.444 559.623,476 428.4,476 H 237.6 C 106.377,476 0,369.444 0,238 0,106.556 106.377,0 237.6,0 Z m 0,152.657 c -47.055,0 -85.2,38.21 -85.2,85.343 0,47.134 38.145,85.343 85.2,85.343 h 190.8 c 47.055,0 85.2,-38.21 85.2,-85.343 0,-47.134 -38.145,-85.343 -85.2,-85.343 z"
       inkscape:connector-curvature="0" />
    <filter
       id="y-4"
       filterUnits="objectBoundingBox"
       height="1.13"
       width="1.0930001"
       y="-0.064999998"
       x="-0.046999998">
      <feMorphology
         id="feMorphology1453"
         result="shadowSpreadInner1"
         in="SourceAlpha"
         radius="32" />
      <feOffset
         id="feOffset1455"
         result="shadowOffsetInner1"
         in="shadowSpreadInner1"
         dy="-30" />
      <feComposite
         id="feComposite1457"
         result="shadowInnerInner1"
         k3="1"
         k2="-1"
         operator="arithmetic"
         in2="SourceAlpha"
         in="shadowOffsetInner1"
         k1="0"
         k4="0" />
      <feColorMatrix
         id="feColorMatrix1459"
         in="shadowInnerInner1"
         values="0 0 0 0 0.262745098 0 0 0 0 0.576470588 0 0 0 0 0.733333333 0 0 0 1 0" />
    </filter>
    <path
       id="A-4"
       d="M 468.6,292.692 H 903 c 30.155,0 54.6,-24.486 54.6,-54.692 0,-30.206 -24.445,-54.692 -54.6,-54.692 H 468.6 c -30.155,0 -54.6,24.486 -54.6,54.692 0,30.206 24.445,54.692 54.6,54.692 z"
       inkscape:connector-curvature="0" />
    <path
       id="C-1"
       d="M 468.6,292.692 H 903 c 30.155,0 54.6,-24.486 54.6,-54.692 0,-30.206 -24.445,-54.692 -54.6,-54.692 H 468.6 c -30.155,0 -54.6,24.486 -54.6,54.692 0,30.206 24.445,54.692 54.6,54.692 z"
       inkscape:connector-curvature="0" />
    <filter
       id="B-4"
       filterUnits="objectBoundingBox"
       height="1.421"
       width="1.085"
       y="-0.20999999"
       x="-0.041999999">
      <feMorphology
         id="feMorphology1464"
         result="shadowSpreadInner1"
         in="SourceAlpha"
         radius="15" />
      <feOffset
         id="feOffset1466"
         result="shadowOffsetInner1"
         in="shadowSpreadInner1"
         dy="-31" />
      <feComposite
         id="feComposite1468"
         result="shadowInnerInner1"
         k3="1"
         k2="-1"
         operator="arithmetic"
         in2="SourceAlpha"
         in="shadowOffsetInner1"
         k1="0"
         k4="0" />
      <feColorMatrix
         id="feColorMatrix1470"
         in="shadowInnerInner1"
         values="0 0 0 0 0.262745098 0 0 0 0 0.576470588 0 0 0 0 0.733333333 0 0 0 1 0" />
    </filter>
  </defs>
  <sodipodi:namedview
     pagecolor="#ffffff"
     bordercolor="#666666"
     borderopacity="1"
     objecttolerance="10"
     gridtolerance="10"
     guidetolerance="10"
     inkscape:pageopacity="0"
     inkscape:pageshadow="2"
     inkscape:window-width="1800"
     inkscape:window-height="1059"
     id="namedview57"
     showgrid="false"
     inkscape:zoom="1.3037281"
     inkscape:cx="329.10533"
     inkscape:cy="222.11271"
     inkscape:window-x="-9"
     inkscape:window-y="-9"
     inkscape:window-maximized="1"
     inkscape:current-layer="Capa_1" />
  <g
     style="fill:none;fill-rule:evenodd"
     id="g1124"
     transform="matrix(0.33056403,0,0,0.33056403,837.71249,83.860541)" />
  <path
     style="fill:#026090;fill-opacity:1"
     inkscape:connector-curvature="0"
     id="path2"
     d="m 70.25815,329.85587 c -5.596,-2.314 -9.258,-7.793 -9.258,-13.857 v -45 h -16 c -24.814,0 -44.99999995676,-20.186 -44.99999995676,-45 v -121 C 1.5004324e-4,80.184871 20.18615,59.998871 45.00015,59.998871 h 301 c 24.814,0 45,20.186 45,44.999999 v 121 c 0,24.814 -20.186,45 -45,45 h -203.789 l -55.605,55.605 c -4.36,4.361 -10.894,5.546 -16.348,3.252 z" />
  <g
     style="fill:#8cc8de;fill-opacity:1;fill-rule:evenodd"
     id="g6"
     transform="matrix(0.29031356,0.29809674,-0.29809674,0.29031356,197.59481,14.987501)">
    <path
       style="fill:#8cc8de;fill-opacity:1"
       id="path2-3"
       d="m 189.547,128.897 c -60.302,62.391 -47.143,165.931 21.932,211.798 2.276,1.512 5.304,1.212 7.259,-0.698 14.542,-14.209 26.844,-27.972 37.616,-45.476 1.648,-2.678 0.623,-6.153 -2.142,-7.651 -10.536,-5.708 -21.02,-16.411 -26.922,-27.717 l -0.007,0.004 c -7.07,-14.078 -9.477,-29.859 -5.734,-46.157 0.004,0.001 0.008,0.002 0.012,0.002 4.307,-20.866 26.708,-40.276 43.817,-58.227 -0.036,-0.012 -0.071,-0.025 -0.107,-0.037 l 64.103,-65.426 c 25.546,-26.073 67.566,-26.288 93.377,-0.477 26.072,25.545 26.503,67.777 0.958,93.849 l -38.828,39.928 c -1.797,1.848 -2.38,4.544 -1.539,6.981 8.94,25.925 11.139,62.48 5.148,90.098 -0.168,0.773 0.786,1.279 1.339,0.714 l 82.638,-84.344 C 525.258,182.181 524.81,94.457 471.472,41.119 417.039,-13.314 328.424,-12.861 274.55,42.124 l -84.672,86.419 c -0.112,0.118 -0.218,0.238 -0.331,0.354 z"
       inkscape:connector-curvature="0" />
    <path
       style="fill:#8cc8de;fill-opacity:1"
       id="path4"
       d="m 344.038,352.576 c -0.001,0.003 -0.003,0.006 -0.004,0.009 0.053,-0.022 0.102,-0.043 0.155,-0.066 16.865,-30.839 20.185,-66.208 12.281,-100.687 l -0.036,0.037 -0.039,-0.017 c -7.505,-30.709 -28.098,-61.203 -56.066,-79.978 -2.406,-1.615 -6.249,-1.428 -8.502,0.394 -14.167,11.455 -28.034,26.144 -37.184,44.889 -1.437,2.943 -0.361,6.478 2.471,8.122 10.619,6.165 20.209,15.191 26.63,27.174 l 0.01,-0.007 c 5.004,8.465 9.935,24.527 6.741,41.785 -0.002,0 -0.005,0 -0.007,0 -2.98,22.881 -26.086,43.869 -44.454,62.781 l 0.009,0.009 c -13.982,14.298 -49.525,50.532 -63.757,65.072 -25.545,26.072 -67.777,26.503 -93.849,0.958 -26.072,-25.545 -26.503,-67.777 -0.958,-93.849 l 38.943,-40.048 c 1.765,-1.815 2.365,-4.453 1.58,-6.86 -8.647,-26.531 -11.016,-62.262 -5.558,-89.849 0.152,-0.769 -0.794,-1.26 -1.343,-0.7 L 39.706,274.82 c -53.332,54.433 -52.88,143.057 1.006,196.942 54.43,53.33 142.597,52.429 195.927,-2.001 18.527,-20.724 97.835,-94.153 107.399,-117.185 z"
       inkscape:connector-curvature="0" />
  </g>
</svg>
